<svg width="18" height="14" viewBox="0 0 18 14" fill="none" xmlns="http://www.w3.org/2000/svg">
<path d="M0.292981 1.70528C-0.0976605 1.3147 -0.0976605 0.683517 0.292981 0.292936C0.683623 -0.0976453 1.31803 -0.0976453 1.70867 0.292936L7.70893 6.29227C8.09957 6.68285 8.09957 7.31715 7.70893 7.70773L1.70867 13.7071C1.31803 14.0976 0.683623 14.0976 0.292981 13.7071C-0.0976605 13.3165 -0.0976605 12.6822 0.292981 12.2916L5.58384 6.99844L0.292981 1.70528ZM7.99957 11.9979H17C17.5531 11.9979 18 12.4447 18 12.9978C18 13.5508 17.5531 13.9977 17 13.9977H7.99957C7.44642 13.9977 6.99952 13.5508 6.99952 12.9978C6.99952 12.4447 7.44642 11.9979 7.99957 11.9979Z" fill="#B5B5B6"/>
</svg>
