<svg width="18" height="16" viewBox="0 0 18 16" fill="none" xmlns="http://www.w3.org/2000/svg">
<path d="M5.90982 12.6008C5.38278 12.4079 4.79602 12.4901 4.34277 12.8293C4.05466 13.0435 3.55924 13.3577 2.95842 13.6398C3.15518 13.1149 3.30627 12.5222 3.35546 11.8759C3.39059 11.4153 3.23951 10.9583 2.94085 10.6083C2.12219 9.66927 1.68651 8.56952 1.68651 7.42691C1.68651 4.58826 4.61331 1.7139 8.99473 1.7139C13.3761 1.7139 16.3029 4.58826 16.3029 7.42691C16.3029 10.2656 13.3761 13.1399 8.99473 13.1399C7.88444 13.1399 6.84091 12.9435 5.90982 12.6008ZM0.924068 13.9897C0.867851 14.0861 0.80812 14.1825 0.744876 14.279L0.734335 14.2968C0.678118 14.3789 0.621901 14.4611 0.565684 14.5432C0.442709 14.711 0.309194 14.8753 0.168651 15.0252C0.00702714 15.1895 -0.0386492 15.4323 0.0491899 15.6465C0.137029 15.8607 0.340816 16 0.569198 16C0.74839 16 0.927582 15.9893 1.10677 15.9714L1.13137 15.9679C1.28597 15.95 1.44056 15.9286 1.59516 15.9C1.62327 15.8965 1.65138 15.8893 1.67948 15.8822C2.3049 15.7572 2.90572 15.543 3.43978 15.3073C4.24439 14.9502 4.92953 14.5253 5.34765 14.2147C6.46496 14.6253 7.70174 14.8538 9.00527 14.8538C13.9735 14.8538 18 11.5296 18 7.42691C18 3.32426 13.9629 0 8.99473 0C4.02655 0 0 3.32426 0 7.42691C0 9.03727 0.621901 10.5262 1.67597 11.7438C1.60921 12.6186 1.27542 13.397 0.924068 13.9897ZM5.05954 8.56952C5.35773 8.56952 5.64371 8.44913 5.85456 8.23486C6.06542 8.02058 6.18388 7.72995 6.18388 7.42691C6.18388 7.12388 6.06542 6.83325 5.85456 6.61897C5.64371 6.40469 5.35773 6.28431 5.05954 6.28431C4.76134 6.28431 4.47536 6.40469 4.26451 6.61897C4.05365 6.83325 3.93519 7.12388 3.93519 7.42691C3.93519 7.72995 4.05365 8.02058 4.26451 8.23486C4.47536 8.44913 4.76134 8.56952 5.05954 8.56952ZM10.1191 7.42691C10.1191 7.12388 10.0006 6.83325 9.78976 6.61897C9.5789 6.40469 9.29292 6.28431 8.99473 6.28431C8.69654 6.28431 8.41056 6.40469 8.1997 6.61897C7.98885 6.83325 7.87039 7.12388 7.87039 7.42691C7.87039 7.72995 7.98885 8.02058 8.1997 8.23486C8.41056 8.44913 8.69654 8.56952 8.99473 8.56952C9.29292 8.56952 9.5789 8.44913 9.78976 8.23486C10.0006 8.02058 10.1191 7.72995 10.1191 7.42691ZM12.9299 8.56952C13.2281 8.56952 13.5141 8.44913 13.725 8.23486C13.9358 8.02058 14.0543 7.72995 14.0543 7.42691C14.0543 7.12388 13.9358 6.83325 13.725 6.61897C13.5141 6.40469 13.2281 6.28431 12.9299 6.28431C12.6317 6.28431 12.3458 6.40469 12.1349 6.61897C11.924 6.83325 11.8056 7.12388 11.8056 7.42691C11.8056 7.72995 11.924 8.02058 12.1349 8.23486C12.3458 8.44913 12.6317 8.56952 12.9299 8.56952Z" fill="#B5B5B6"/>
</svg>
