<svg width="19" height="20" viewBox="0 0 19 20" fill="none" xmlns="http://www.w3.org/2000/svg">
<path d="M16.5057 9.29196C17.5755 8.66623 17.9567 7.31122 17.3825 6.22319C17.3713 6.19639 17.3583 6.17023 17.3437 6.14489L16.8204 5.23682C16.8204 5.2368 16.8204 5.23679 16.8204 5.23677C16.1849 4.134 14.7768 3.75357 13.6725 4.38634L13.6725 4.3863L13.6652 4.39057C13.4591 4.51198 13.2132 4.54643 12.9817 4.48631C12.7502 4.4262 12.5521 4.27646 12.4311 4.07011L12.4311 4.07011L12.4292 4.06693C12.3555 3.94285 12.3152 3.80192 12.3119 3.65778C12.3251 3.04015 12.0901 2.44269 11.6592 1.99939C11.2244 1.5521 10.6271 1.29982 10.0033 1.3C10.0032 1.3 10.0031 1.3 10.003 1.3L8.94895 1.3C8.33685 1.3 7.74996 1.54391 7.31817 1.97778C6.88831 2.40971 6.64744 2.99444 6.64819 3.60359C6.63835 4.09658 6.23676 4.4919 5.74348 4.49379C5.59695 4.49164 5.45351 4.45116 5.32745 4.37635L5.32749 4.37628L5.3182 4.37095C4.2165 3.73967 2.81242 4.11681 2.17487 5.21358L1.61702 6.13059L1.60853 6.14492C0.973894 7.24636 1.34916 8.65361 2.44796 9.2928L2.44995 9.29394C2.73102 9.45622 2.90417 9.75612 2.90417 10.0807C2.90417 10.4052 2.73102 10.7051 2.44995 10.8674L2.44941 10.8677C1.3504 11.5035 0.974179 12.9094 1.60875 14.0091L1.60949 14.0104L2.1374 14.9209C2.43554 15.4548 2.93341 15.8487 3.52182 16.0159C4.1126 16.1838 4.74594 16.1094 5.28168 15.8091L5.28173 15.8091L5.29219 15.803C5.4979 15.683 5.74305 15.6501 5.97313 15.7117C6.20321 15.7733 6.39916 15.9242 6.51743 16.1309L6.51735 16.131L6.52307 16.1406C6.59802 16.2669 6.63851 16.4106 6.64052 16.5574C6.64294 17.8303 7.67554 18.8614 8.94895 18.8614H10.0033C11.2739 18.8614 12.3056 17.8346 12.3117 16.564H12.3118L12.3117 16.5572C12.3106 16.3168 12.4055 16.086 12.5755 15.916C12.7437 15.7478 12.9715 15.653 13.2091 15.6522C13.3611 15.6575 13.5095 15.6996 13.6416 15.775C14.7414 16.4077 16.1454 16.0341 16.7856 14.9392L17.3374 14.0194L17.3375 14.0194L17.342 14.0116C17.6503 13.4825 17.7349 12.8523 17.5771 12.2606C17.4193 11.6689 17.0322 11.1646 16.5014 10.8592C16.2936 10.7396 16.142 10.5422 16.0802 10.3105C16.0184 10.0789 16.0516 9.83215 16.1723 9.62499L16.1723 9.625L16.1748 9.62052C16.2524 9.48505 16.3647 9.37274 16.5002 9.29515L16.5002 9.29517L16.5057 9.29196Z" stroke="#B5B5B6" stroke-width="1.4" stroke-linecap="round" stroke-linejoin="round"/>
<path d="M9.47996 12.9968C11.0906 12.9968 12.3962 11.6912 12.3962 10.0805C12.3962 8.46992 11.0906 7.16426 9.47996 7.16426C7.86934 7.16426 6.56367 8.46992 6.56367 10.0805C6.56367 11.6912 7.86934 12.9968 9.47996 12.9968Z" stroke="#B5B5B6" stroke-width="1.4" stroke-linecap="round" stroke-linejoin="round"/>
</svg>
