<svg width="24" height="24" viewBox="0 0 24 24" fill="none" xmlns="http://www.w3.org/2000/svg">
<path d="M9.35506 5.83003L9.47506 5.89003C9.96006 6.14003 10.3551 6.53503 10.6051 7.02003L10.6651 7.14003C10.9051 7.61503 11.5851 7.61503 11.8301 7.14003L11.8901 7.02003C12.1401 6.53503 12.5351 6.14003 13.0201 5.89003L13.1401 5.83003C13.6151 5.59003 13.6151 4.91003 13.1401 4.66503L13.0201 4.60503C12.5351 4.35503 12.1401 3.96003 11.8901 3.47503L11.8301 3.35503C11.5901 2.88003 10.9101 2.88003 10.6651 3.35503L10.6051 3.47503C10.3551 3.96003 9.96006 4.35503 9.47506 4.60503L9.35506 4.66503C8.88006 4.90503 8.88006 5.58503 9.35506 5.83003Z" fill="#00C07E"/>
<path d="M10.3001 10.515C10.7901 10.265 10.7901 9.57003 10.3001 9.32003L9.57006 8.94503C8.92006 8.61003 8.39006 8.08003 8.05506 7.43003L7.68006 6.70003C7.43006 6.21003 6.73506 6.21003 6.48506 6.70003L6.11006 7.43003C5.77506 8.08003 5.24506 8.61003 4.59506 8.94503L3.86506 9.32003C3.37506 9.57003 3.37506 10.265 3.86506 10.515L4.59506 10.89C5.24506 11.225 5.77506 11.755 6.11006 12.405L6.48506 13.135C6.73506 13.625 7.43006 13.625 7.68006 13.135L8.05506 12.405C8.39006 11.755 8.92006 11.225 9.57006 10.89L10.3001 10.515Z" fill="#00C07E"/>
<path d="M19.6801 13.505L18.9401 13.125C18.0451 12.67 17.3301 11.955 16.8751 11.06L16.4951 10.32C16.1601 9.66003 15.4901 9.25003 14.7501 9.25003C14.0101 9.25003 13.3401 9.66003 13.0051 10.32L12.6251 11.06C12.1701 11.955 11.4551 12.67 10.5601 13.125L9.82006 13.505C9.16006 13.84 8.75006 14.51 8.75006 15.25C8.75006 15.99 9.16006 16.66 9.82006 16.995L10.5601 17.375C11.4551 17.83 12.1701 18.545 12.6251 19.44L13.0051 20.18C13.3401 20.84 14.0101 21.25 14.7501 21.25C15.4901 21.25 16.1601 20.84 16.4951 20.18L16.8751 19.44C17.3301 18.545 18.0451 17.83 18.9401 17.375L19.6801 16.995C20.3401 16.66 20.7501 15.99 20.7501 15.25C20.7501 14.51 20.3401 13.84 19.6801 13.505ZM19.0001 15.66L18.2601 16.04C17.0801 16.64 16.1401 17.58 15.5401 18.76L15.1601 19.5C15.0451 19.725 14.8351 19.75 14.7501 19.75C14.6651 19.75 14.4551 19.725 14.3401 19.5L13.9601 18.76C13.3601 17.58 12.4201 16.64 11.2401 16.04L10.5001 15.66C10.2751 15.545 10.2501 15.335 10.2501 15.25C10.2501 15.165 10.2751 14.955 10.5001 14.84L11.2401 14.46C12.4201 13.86 13.3601 12.92 13.9601 11.74L14.3401 11C14.4551 10.775 14.6651 10.75 14.7501 10.75C14.8351 10.75 15.0451 10.775 15.1601 11L15.5401 11.74C16.1401 12.92 17.0801 13.86 18.2601 14.46L19.0001 14.84C19.2251 14.955 19.2501 15.165 19.2501 15.25C19.2501 15.335 19.2251 15.545 19.0001 15.66Z" fill="#00C07E"/>
</svg>
