<svg width="19" height="15" viewBox="0 0 19 15" fill="none" xmlns="http://www.w3.org/2000/svg">
<path d="M16.8889 1.60714C17.1792 1.60714 17.4167 1.84821 17.4167 2.14286V3.21429H1.58333V2.14286C1.58333 1.84821 1.82083 1.60714 2.11111 1.60714H16.8889ZM17.4167 6.42857V12.8571C17.4167 13.1518 17.1792 13.3929 16.8889 13.3929H2.11111C1.82083 13.3929 1.58333 13.1518 1.58333 12.8571V6.42857H17.4167ZM2.11111 0C0.946701 0 0 0.960937 0 2.14286V12.8571C0 14.0391 0.946701 15 2.11111 15H16.8889C18.0533 15 19 14.0391 19 12.8571V2.14286C19 0.960937 18.0533 0 16.8889 0H2.11111ZM3.95833 10.1786C3.51962 10.1786 3.16667 10.5368 3.16667 10.9821C3.16667 11.4275 3.51962 11.7857 3.95833 11.7857H5.54167C5.98038 11.7857 6.33333 11.4275 6.33333 10.9821C6.33333 10.5368 5.98038 10.1786 5.54167 10.1786H3.95833ZM8.18056 10.1786C7.74184 10.1786 7.38889 10.5368 7.38889 10.9821C7.38889 11.4275 7.74184 11.7857 8.18056 11.7857H11.875C12.3137 11.7857 12.6667 11.4275 12.6667 10.9821C12.6667 10.5368 12.3137 10.1786 11.875 10.1786H8.18056Z" fill="#B5B5B6"/>
</svg>
